<svg width="1500" height="1333" viewBox="0 0 1500 1333" fill="none" xmlns="http://www.w3.org/2000/svg">
<g clip-path="url(#clip0_167_3)">
<path d="M750 1333.11C1164.21 1333.11 1500 997.319 1500 583.105C1500 168.892 1164.21 -166.895 750 -166.895C335.786 -166.895 0 168.892 0 583.105C0 997.319 335.786 1333.11 750 1333.11Z" fill="white"/>
<path d="M1041.94 799.952L1075.17 583.105H867.178V442.408C867.178 383.133 896.182 325.23 989.418 325.23H1084.02V140.657C1084.02 140.657 998.172 125.997 916.116 125.997C744.832 125.997 632.822 229.779 632.822 417.833V583.105H442.343V799.952H632.822V1324.03C671.003 1330.05 710.132 1333.11 750 1333.11C789.868 1333.11 828.997 1329.94 867.178 1324.03V799.952H1041.94Z" fill="#0058CD"/>
</g>
<defs>
<clipPath id="clip0_167_3">
<rect width="1500" height="1500" fill="white" transform="translate(0 -167)"/>
</clipPath>
</defs>
</svg>
