<svg width="1258" height="418" viewBox="0 0 1258 418" fill="none" xmlns="http://www.w3.org/2000/svg">
<mask id="mask0_101_14" style="mask-type:alpha" maskUnits="userSpaceOnUse" x="59" y="44" width="1140" height="300">
<path d="M59 64C59 52.9543 67.9543 44 79 44H1179C1190.05 44 1199 52.9543 1199 64V324C1199 335.046 1190.05 344 1179 344H79C67.9543 344 59 335.046 59 324V64Z" fill="white"/>
<path d="M79 44.25H1179C1189.91 44.25 1198.75 53.0924 1198.75 64V324C1198.75 334.908 1189.91 343.75 1179 343.75H79C68.0924 343.75 59.25 334.908 59.25 324V64C59.25 53.0924 68.0924 44.25 79 44.25Z" stroke="#323AAF" stroke-opacity="0.3" stroke-width="0.5"/>
</mask>
<g mask="url(#mask0_101_14)">
<circle cx="97" cy="375" r="150" fill="#C4C7FF" fill-opacity="0.7"/>
<circle cx="117" cy="344" r="150" fill="#323AAF" fill-opacity="0.7"/>
</g>
<mask id="mask1_101_14" style="mask-type:alpha" maskUnits="userSpaceOnUse" x="59" y="44" width="1140" height="300">
<path d="M59 64C59 52.9543 67.9543 44 79 44H1179C1190.05 44 1199 52.9543 1199 64V324C1199 335.046 1190.05 344 1179 344H79C67.9543 344 59 335.046 59 324V64Z" fill="white"/>
<path d="M79 44.25H1179C1189.91 44.25 1198.75 53.0924 1198.75 64V324C1198.75 334.908 1189.91 343.75 1179 343.75H79C68.0924 343.75 59.25 334.908 59.25 324V64C59.25 53.0924 68.0924 44.25 79 44.25Z" stroke="#323AAF" stroke-opacity="0.3" stroke-width="0.5"/>
</mask>
<g mask="url(#mask1_101_14)">
<circle cx="1179" cy="73" r="150" fill="#323AAF" fill-opacity="0.7"/>
<circle cx="1199" cy="42" r="150" fill="#565ED7" fill-opacity="0.7"/>
</g>
</svg>
